{"title":"Avicii - Addicted To You 2014 HD 720p x264 AAC E-Subs [GWC].mp4","uid":9618037,"size":41993911,"categoryP":"video","categoryS":"music_videos","magnet":"?xt=urn:btih:9c9926aad358d6da6151ea330cd5f224ec523ef9&amp;dn=Avicii+-+Addicted+To+You+2014+HD+720p+x264+AAC+E-Subs+%5BGWC%5D.mp4&amp;tr=udp%3A%2F%2Ftracker.openbittorrent.com%3A80&amp;tr=udp%3A%2F%2Fopen.demonii.com%3A1337&amp;tr=udp%3A%2F%2Ftracker.coppersurfer.tk%3A6969&amp;tr=udp%3A%2F%2Fexodus.desync.com%3A6969","seeders":8,"leechers":1,"uploader":"canc232","files":1,"time":1392445677,"description":"Avicii - Addicted To You 2014 HD 720p x264 AAC E-Subs [GWC]\n\n\nCOVER : &lt;a href=&quot;\nhttp://s20.postimg.org/b3yxjtksd/Avicii_Addicted_to_You_2014.jpg&quot; rel=&quot;nofollow&quot; target=&quot;_NEW&quot;&gt;\nhttp://s20.postimg.org/b3yxjtksd/Avicii_Addicted_to_You_2014.jpg&lt;/a&gt;\n\n\nTHUMBNAIL IMAGE : &lt;a href=&quot;\nhttp://img268.imageshack.us/img268/7004/xrxk.jpg&quot; rel=&quot;nofollow&quot; target=&quot;_NEW&quot;&gt;\nhttp://img268.imageshack.us/img268/7004/xrxk.jpg&lt;/a&gt;\n\n\nMEDIA INFO :\nGeneral \nFormat : MPEG-4 \nFormat profile : Base Media \nFile size : 40.0 MiB \nDuration : 3mn 25s \nOverall bit rate mode : Variable \nOverall bit rate : 1 632 Kbps  \n\nVideo \nFormat : AVC \nFormat profile : &lt;a class=&quot;__cf_email__&quot; href=&quot;/cdn-cgi/l/email-protection&quot; data-cfemail=&quot;4f022e26210f037c617e&quot;&gt;[email&amp;#160;protected]&lt;/a&gt;&lt;script cf-hash='f9e31' type=&quot;text/javascript&quot;&gt;\n/* &lt;![CDATA[ */!function(){try{var t=&quot;currentScript&quot;in document?document.currentScript:function(){for(var t=document.getElementsByTagName(&quot;script&quot;),e=t.length;e--;)if(t[e].getAttribute(&quot;cf-hash&quot;))return t[e]}();if(t&amp;&amp;t.previousSibling){var e,r,n,i,c=t.previousSibling,a=c.getAttribute(&quot;data-cfemail&quot;);if(a){for(e=&quot;&quot;,r=parseInt(a.substr(0,2),16),n=2;a.length-n;n+=2)i=parseInt(a.substr(n,2),16)^r,e+=String.fromCharCode(i);e=document.createTextNode(e),c.parentNode.replaceChild(e,c)}}}catch(u){}}();/* ]]&gt; */&lt;/script&gt; \nFormat settings, CABAC : Yes \nFormat settings, ReFrames : 3 frames \nDuration : 3mn 23s \nBit rate : 1 563 Kbps \nMaximum bit rate : 4 883 Kbps \nWidth : 1 280 pixels \nHeight : 720 pixels \nDisplay aspect ratio : 16:9 \nFrame rate : 25.000 fps \nStream size : 37.9 MiB (95%) \nTitle : Avicii - Addicted To You HD 720p x264 AAC E-Subs [GWC] \n\nAudio \nFormat : AAC \nFormat profile : LC \nDuration : 3mn 23s \nBit rate mode : Variable \nChannel(s) : 2 channels \nSampling rate : 48.0 KHz \nStream size : 2.08 MiB (5%) \nLanguage : English \n\nText \nFormat : Timed Text \nDuration : 3mn 25s \nTitle : Englsih Subtitle by [GWC] \nLanguage : English","torrent":{"xt":"urn:btih:9c9926aad358d6da6151ea330cd5f224ec523ef9","amp;dn":"Avicii+-+Addicted+To+You+2014+HD+720p+x264+AAC+E-Subs+%5BGWC%5D.mp4","amp;tr":["udp%3A%2F%2Ftracker.openbittorrent.com%3A80","udp%3A%2F%2Fopen.demonii.com%3A1337","udp%3A%2F%2Ftracker.coppersurfer.tk%3A6969","udp%3A%2F%2Fexodus.desync.com%3A6969"],"infoHash":"9c9926aad358d6da6151ea330cd5f224ec523ef9","infoHashBuffer":{"type":"Buffer","data":[156,153,38,170,211,88,214,218,97,81,234,51,12,213,242,36,236,82,62,249]},"announce":[],"urlList":[]}}